<svg height="480pt" viewBox="-48 0 480 480" width="480pt" xmlns="http://www.w3.org/2000/svg"><path d="m344 472c-17.671875 0-32-14.328125-32-32v-32h-272v-320h80v-80h152l40 72 32-72h32v432c0 17.671875-14.328125 32-32 32zm0 0" fill="#f4f4e6"/><path d="m120 88h-80l80-80zm0 0" fill="#cfdfe8"/><path d="m8 120h240v128h-240zm0 0" fill="#f9bb4b"/><path d="m40 472c-17.671875 0-32-14.328125-32-32v-32h304v32c0 17.671875 14.328125 32 32 32zm0 0" fill="#cfdfe8"/><path d="m120 224h-48c-2.910156 0-5.585938-1.578125-6.996094-4.121094-1.410156-2.542968-1.328125-5.652344.210938-8.117187l32.386718-51.761719h-33.601562v-16h48c2.910156 0 5.585938 1.578125 6.996094 4.121094 1.410156 2.542968 1.328125 5.652344-.210938 8.117187l-32.386718 51.761719h33.601562zm0 0" fill="#394d5c"/><path d="m136 144h16v80h-16zm0 0" fill="#394d5c"/><path d="m184 224h-16v-72c0-4.417969 3.582031-8 8-8h40c4.417969 0 8 3.582031 8 8v40c0 4.417969-3.582031 8-8 8h-32zm0-40h24v-24h-24zm0 0" fill="#394d5c"/><path d="m311.878906 360c-17.136718 0-33.703125-14.953125-32-32l16-48h32l16 48c1.722656 17.046875-14.863281 32-32 32zm0 0" fill="#db527d"/><path d="m295.878906 248h32v32h-32zm0 0" fill="#f9bb4b"/><path d="m303.878906 312h16v24h-16zm0 0" fill="#f4f4e6"/><g fill="#195c85"><path d="m287.878906 96h24v16h-24zm0 0"/><path d="m311.878906 112h24v16h-24zm0 0"/><path d="m287.878906 128h24v16h-24zm0 0"/><path d="m311.878906 144h24v16h-24zm0 0"/><path d="m287.878906 160h24v16h-24zm0 0"/><path d="m311.878906 176h24v16h-24zm0 0"/><path d="m287.878906 192h24v16h-24zm0 0"/><path d="m311.878906 208h24v16h-24zm0 0"/><path d="m224 288h16v16h-16zm0 0"/><path d="m200 312h16v16h-16zm0 0"/></g><path d="m112 384h-48v-48h16v32h32zm0 0" fill="#32b1cc"/><path d="m303.9375 80h16v168h-16zm0 0" fill="#32b1cc"/><path d="m376 0h-32c-3.164062 0-6.027344 1.863281-7.3125 4.753906l-25.488281 57.34375-32.207031-57.984375c-1.410157-2.539062-4.089844-4.113281-6.992188-4.113281h-152c-2.121094 0-4.15625.84375-5.65625 2.34375l-80 80c-1.5 1.5-2.34375 3.535156-2.34375 5.65625v24h-32v144h32v144h-32v40c.0273438 22.082031 17.917969 39.972656 40 40h304c22.082031-.027344 39.972656-17.917969 40-40v-432c0-4.417969-3.582031-8-8-8zm-74.351562 288h20.464843l13.886719 41.601562c.113281 5.144532-1.835938 10.121094-5.414062 13.824219-4.679688 5.441407-11.503907 8.574219-18.683594 8.574219-7.175782 0-14-3.132812-18.679688-8.574219-3.578125-3.699219-5.53125-8.679687-5.414062-13.824219zm2.230468-16v-16h16v16zm-191.878906-244.6875v52.6875h-52.6875zm-96 100.6875h224v112h-224zm0 312v-24h288v24c.03125 8.683594 2.914062 17.117188 8.207031 24h-272.207031c-13.253906 0-24-10.746094-24-24zm352 0c0 13.253906-10.746094 24-24 24s-24-10.746094-24-24v-32c0-4.417969-3.582031-8-8-8h-264v-144h208v-144h-208v-16h72c4.417969 0 8-3.582031 8-8v-72h139.296875l36.703125 66.070312v13.929688h-16.121094v16h16.121094v16h-16.121094v16h16.074219v16h-16.074219v16h16.050782v16h-16.050782v16h16v32h-8c-4.417968 0-8 3.582031-8 8v30.695312l-15.589844 46.777344c-.1875.558594-.3125 1.140625-.367187 1.726563-.859375 9.921875 2.570313 19.734375 9.414063 26.96875 7.714843 8.792969 18.84375 13.832031 30.539062 13.832031s22.828125-5.039062 30.539062-13.832031c6.851563-7.230469 10.28125-17.046875 9.425782-26.96875-.058594-.585938-.183594-1.167969-.367188-1.726563l-15.59375-46.777344v-30.695312c0-4.417969-3.582031-8-8-8h-8v-16h16v-16h-16v-16h15.960938v-16h-15.910156v-16h15.933593v-16h-15.910156v-16h15.910156v-16h-15.863281v-30.304688l29.199219-65.695312h18.800781zm0 0"/><path d="m118.785156 156.238281c1.539063-2.464843 1.621094-5.574219.210938-8.117187-1.410156-2.542969-4.085938-4.121094-6.996094-4.121094h-48v16h33.601562l-32.355468 51.761719c-1.535156 2.460937-1.621094 5.5625-.21875 8.101562 1.402344 2.542969 4.070312 4.125 6.972656 4.136719h48v-16h-33.601562zm0 0"/><path d="m136 144h16v80h-16zm0 0"/><path d="m216 144h-40c-4.417969 0-8 3.582031-8 8v72h16v-24h32c4.417969 0 8-3.582031 8-8v-40c0-4.417969-3.582031-8-8-8zm-8 40h-24v-24h24zm0 0"/><path d="m303.878906 312h16v24h-16zm0 0"/><path d="m224 288h16v16h-16zm0 0"/><path d="m200 312h16v16h-16zm0 0"/><path d="m80 336h-16v48h48v-16h-32zm0 0"/></svg>